<svg version="1.1" xmlns="http://www.w3.org/2000/svg" xmlns:xlink="http://www.w3.org/1999/xlink" x="0px" y="0px" width="512px" height="512px" viewBox="0 0 512 512">
  <style type="text/css">
  	.st0 {
      fill: none;
      stroke: #000000;
      stroke-width: 40;
      stroke-linecap: round;
      stroke-linejoin: round;
    }
    @media (prefers-color-scheme: dark) {
      .st0 {
        stroke: #fff;
      }
    }
  </style>
  <path class="st0" d="M341.3,85.3H384c23.6,0,42.7,19.1,42.7,42.7v298.7c0,23.6-19.1,42.7-42.7,42.7H128 c-23.6,0-42.7-19.1-42.7-42.7V128c0-23.6,19.1-42.7,42.7-42.7h42.7" />
	<path class="st0" d="M192,42.7h128c11.8,0,21.3,9.6,21.3,21.3v42.7c0,11.8-9.6,21.3-21.3,21.3H192c-11.8,0-21.3-9.6-21.3-21.3V64 C170.7,52.2,180.2,42.7,192,42.7z" />
	<line class="st0" x1="320" y1="384" x2="320" y2="277.3" />
	<line class="st0" x1="256" y1="384" x2="256" y2="213.3" />
	<line class="st0" x1="192" y1="384" x2="192" y2="320" />
</svg>
