<?xml version="1.0" encoding="utf-8"?>
<!-- Generator: Adobe Illustrator 25.3.1, SVG Export Plug-In . SVG Version: 6.00 Build 0)  -->
<svg version="1.1" id="Calque_1" xmlns="http://www.w3.org/2000/svg" xmlns:xlink="http://www.w3.org/1999/xlink" x="0px" y="0px"
	 width="512px" height="512px" viewBox="0 0 512 512" style="enable-background:new 0 0 512 512;" xml:space="preserve">
<style type="text/css">
	.st0{fill:#FFFFFF;}
	.st1{fill:none;stroke:#000000;stroke-width:32;stroke-linecap:round;stroke-linejoin:round;}
</style>
<g>
	<g>
		<rect class="st0" width="512" height="512"/>
		<path class="st1" d="M341.333,85.333H384c23.564,0,42.667,19.103,42.667,42.667v298.667c0,23.564-19.102,42.667-42.667,42.667H128
			c-23.564,0-42.667-19.103-42.667-42.667V128c0-23.564,19.103-42.667,42.667-42.667h42.667"/>
		<path class="st1" d="M192,42.667h128c11.782,0,21.333,9.551,21.333,21.333v42.667c0,11.782-9.551,21.333-21.333,21.333H192
			c-11.782,0-21.333-9.551-21.333-21.333V64C170.667,52.218,180.218,42.667,192,42.667z"/>
	</g>
	<line class="st1" x1="320" y1="384" x2="320" y2="277.333"/>
	<line class="st1" x1="256" y1="384" x2="256" y2="213.333"/>
	<line class="st1" x1="192" y1="384" x2="192" y2="320"/>
</g>
</svg>
